<?xml version="1.0" encoding="utf-8"?>
<!-- Generator: Adobe Illustrator 17.1.0, SVG Export Plug-In . SVG Version: 6.00 Build 0)  -->
<!DOCTYPE svg PUBLIC "-//W3C//DTD SVG 1.1//EN" "http://www.w3.org/Graphics/SVG/1.1/DTD/svg11.dtd">
<svg version="1.1" id="Layer_1" xmlns="http://www.w3.org/2000/svg" xmlns:xlink="http://www.w3.org/1999/xlink" x="0px" y="0px"
	 viewBox="0 0 292.4 121.7" enable-background="new 0 0 292.4 121.7" xml:space="preserve">
	 <style>
	 	.words {
	 		transform: scale(1.26) translate(-58px, -21px);
	 	}
	 </style>
<g fill="#eee">
	<g>
		<path d="M42,6.4c-2.7,0-4.9,2.2-4.9,4.9v15c0,5.6-4.5,10.1-10.1,10.1c-5.6,0-10.1-4.5-10.1-10.1v-15c0-2.7-2.2-4.9-4.9-4.9
			C9.2,6.4,7,8.6,7,11.4v15c0,11,9,20,20,20c11,0,20-9,20-20v-15C46.9,8.6,44.7,6.4,42,6.4z"/>
	</g>
	<g>
		<path d="M42,51.5c-2.7,0-4.9,2.2-4.9,4.9C37,62,32.5,66.5,27,66.5c-5.6,0-10.1-4.5-10.1-10.1c0-2.7-2.2-4.9-4.9-4.9
			c-2.7,0-4.9,2.2-4.9,4.9c0,11,9,20,20,20c11,0,20-9,20-20C46.9,53.7,44.7,51.5,42,51.5z"/>
	</g>
	<g>
		<path d="M108.1,36.1c2.2,0,4,1.3,4.9,3.1V26.5c0-5.6,4.5-10.1,10.1-10.1c5.6,0,10.1,4.5,10.1,10.1v12.9c0.8-1.9,2.8-3.3,5-3.3
			c2.2,0,4,1.3,4.9,3.1V26.5c0-11-9-20-20-20c-11,0-20,9-20,20v12.9C103.9,37.4,105.8,36.1,108.1,36.1z"/>
		<path d="M138.1,37.1c-2.5,0-4.4,2-4.4,4.4s2,4.4,4.4,4.4c2.4,0,4.4-2,4.4-4.4S140.5,37.1,138.1,37.1z"/>
		<path d="M108.1,46c2.5,0,4.4-2,4.4-4.4s-2-4.4-4.4-4.4c-2.4,0-4.4,2-4.4,4.4S105.6,46,108.1,46z"/>
		<path d="M138.1,47c-2.2,0-4.1-1.3-4.9-3.2v12.7c0,5.6-4.5,10.1-10.1,10.1c-5.6,0-10.1-4.5-10.1-10.1V43.8
			c-0.9,1.9-2.8,3.2-4.9,3.2c-2.2,0-4.1-1.3-4.9-3.2v12.7c0,11,9,20,20,20c11,0,20-9,20-20V43.8C142.2,45.6,140.3,47,138.1,47z"/>
	</g>
	<g>
		<path d="M169.4,37.1h-15c-2.4,0-4.4,2-4.4,4.4c0,2.5,2,4.4,4.4,4.4h15c4.5,0,8.9-1.6,12.4-4.4C178.3,38.6,174,37.1,169.4,37.1z"/>
		<path d="M154.4,16.4h15c5.6,0,10.1,4.5,10.1,10.1c0,4.7-3.2,8.6-7.6,9.7c4,0.5,7.9,2.2,11,4.9l0,0c4-3.6,6.5-8.9,6.5-14.7
			c0-11-9-20-20-20h-15c-2.7,0-4.9,2.2-4.9,4.9C149.5,14.2,151.7,16.4,154.4,16.4z"/>
		<path d="M182.9,41.9L182.9,41.9c-3.1,2.7-7,4.4-11,4.9c4.3,1.1,7.6,5.1,7.6,9.7c0,5.6-4.5,10.1-10.1,10.1h-15
			c-2.7,0-4.9,2.2-4.9,4.9c0,2.7,2.2,4.9,4.9,4.9h15c11,0,20-9,20-20C189.4,50.7,186.9,45.5,182.9,41.9z"/>
	</g>
	<g class="words">
		<!-- <g>
			<path d="M20.8,115.2l-1.1-3.2h-6.4l-1.1,3.2H8.5l6.6-18.1h2.8l6.6,18.1H20.8z M16.6,102.5l-2.3,6.6h4.5L16.6,102.5z"/>
		</g>
		<g>
			<path d="M31.9,115.4c-1.9,0-3.6-0.7-4.9-2c-0.8-0.8-1.3-1.7-1.5-2.7s-0.3-2.5-0.3-4.5s0.1-3.5,0.3-4.5c0.2-1,0.7-1.9,1.5-2.7
				c1.3-1.3,2.9-2,4.9-2c3.5,0,6,2,6.7,5.7H35c-0.4-1.6-1.3-2.6-3-2.6c-1,0-1.7,0.3-2.3,0.9c-0.7,0.8-0.9,1.6-0.9,5.1
				c0,3.5,0.2,4.3,0.9,5.1c0.5,0.6,1.3,0.9,2.3,0.9c1.7,0,2.7-1,3-2.6h3.6C38,113.4,35.4,115.4,31.9,115.4z"/>
		</g>
		<g>
			<path d="M52.7,113.3c-1.4,1.4-3.1,2.1-5.1,2.1c-1.9,0-3.6-0.7-4.9-2c-0.8-0.8-1.3-1.7-1.5-2.7c-0.2-1-0.3-2.5-0.3-4.5
				s0.1-3.5,0.3-4.5c0.2-1,0.7-1.9,1.5-2.7c1.3-1.3,2.9-2,4.9-2c4.1,0,6.3,2.6,6.8,5.8h-3.6c-0.4-1.8-1.5-2.6-3.3-2.6
				c-0.9,0-1.7,0.3-2.3,1c-0.7,0.8-0.9,1.5-0.9,5.1c0,3.6,0.2,4.3,0.9,5.1c0.5,0.6,1.3,0.9,2.3,0.9c1,0,1.9-0.3,2.5-1
				c0.5-0.6,0.8-1.4,0.8-2.4v-0.7h-3.3v-2.9h6.8v2.6C54.5,110.5,54,112,52.7,113.3z"/>
		</g> -->
		<g>
			<path d="M69.4,115.4c-2.7,0-4.8-0.6-6.6-2.4l2.3-2.3c1.1,1.1,2.7,1.5,4.4,1.5c2.1,0,3.2-0.8,3.2-2.2c0-0.6-0.2-1.2-0.6-1.5
				c-0.4-0.3-0.8-0.5-1.6-0.6l-2.2-0.3c-1.6-0.2-2.7-0.7-3.5-1.5c-0.9-0.9-1.3-2-1.3-3.6c0-3.2,2.4-5.5,6.3-5.5
				c2.5,0,4.3,0.6,5.8,2.1l-2.2,2.2c-1.1-1.1-2.5-1.2-3.7-1.2c-1.9,0-2.8,1-2.8,2.3c0,0.5,0.2,0.9,0.5,1.3c0.4,0.3,0.9,0.6,1.7,0.7
				l2.1,0.3c1.7,0.2,2.7,0.7,3.5,1.4c1,0.9,1.4,2.2,1.4,3.8C76.1,113.4,73.2,115.4,69.4,115.4z"/>
		</g>
		<g>
			<path d="M85.1,115.4c-1.9,0-3.6-0.7-4.9-2c-0.8-0.8-1.3-1.7-1.5-2.7s-0.3-2.5-0.3-4.5s0.1-3.5,0.3-4.5c0.2-1,0.7-1.9,1.5-2.7
				c1.3-1.3,2.9-2,4.9-2c3.5,0,6,2,6.7,5.7h-3.6c-0.4-1.6-1.3-2.6-3-2.6c-1,0-1.7,0.3-2.3,0.9c-0.7,0.8-0.9,1.6-0.9,5.1
				c0,3.5,0.2,4.3,0.9,5.1c0.5,0.6,1.3,0.9,2.3,0.9c1.7,0,2.7-1,3-2.6h3.6C91.2,113.4,88.6,115.4,85.1,115.4z"/>
		</g>
		<g>
			<path d="M104.1,115.2v-7.6h-6.1v7.6h-3.5V97.2h3.5v7.4h6.1v-7.4h3.5v18.1H104.1z"/>
		</g>
		<g>
			<path d="M122.3,113.4c-1.3,1.3-2.8,2-4.9,2s-3.6-0.7-4.9-2c-1.8-1.8-1.8-4.1-1.8-7.2c0-3.1-0.1-5.4,1.8-7.2c1.3-1.3,2.8-2,4.9-2
				s3.6,0.7,4.9,2c1.8,1.8,1.8,4.1,1.8,7.2C124.1,109.3,124.1,111.6,122.3,113.4z M119.7,101.1c-0.5-0.6-1.3-1-2.3-1s-1.8,0.4-2.3,1
				c-0.7,0.8-0.9,1.6-0.9,5.1s0.2,4.3,0.9,5.1c0.5,0.6,1.3,1,2.3,1s1.8-0.4,2.3-1c0.7-0.8,0.9-1.6,0.9-5.1S120.4,101.9,119.7,101.1z
				"/>
		</g>
		<g>
			<path d="M138.4,113.4c-1.3,1.3-2.8,2-4.9,2s-3.6-0.7-4.9-2c-1.8-1.8-1.8-4.1-1.8-7.2c0-3.1-0.1-5.4,1.8-7.2c1.3-1.3,2.8-2,4.9-2
				s3.6,0.7,4.9,2c1.8,1.8,1.8,4.1,1.8,7.2C140.2,109.3,140.2,111.6,138.4,113.4z M135.8,101.1c-0.5-0.6-1.3-1-2.3-1
				c-1,0-1.8,0.4-2.3,1c-0.7,0.8-0.9,1.6-0.9,5.1s0.2,4.3,0.9,5.1c0.5,0.6,1.3,1,2.3,1c1,0,1.8-0.4,2.3-1c0.7-0.8,0.9-1.6,0.9-5.1
				S136.5,101.9,135.8,101.1z"/>
		</g>
		<g>
			<path d="M143.2,115.2V97.2h3.5v14.9h8.2v3.2H143.2z"/>
		</g>
		<g>
			<path d="M174.7,113.4c-1.3,1.3-2.8,2-4.9,2c-2.1,0-3.6-0.7-4.9-2c-1.8-1.8-1.8-4.1-1.8-7.2c0-3.1-0.1-5.4,1.8-7.2
				c1.3-1.3,2.8-2,4.9-2c2.1,0,3.6,0.7,4.9,2c1.8,1.8,1.8,4.1,1.8,7.2C176.5,109.3,176.5,111.6,174.7,113.4z M172.1,101.1
				c-0.5-0.6-1.3-1-2.3-1c-1,0-1.8,0.4-2.3,1c-0.7,0.8-0.9,1.6-0.9,5.1s0.2,4.3,0.9,5.1c0.5,0.6,1.3,1,2.3,1c1,0,1.8-0.4,2.3-1
				c0.7-0.8,0.9-1.6,0.9-5.1S172.8,101.9,172.1,101.1z"/>
		</g>
		<g>
			<path d="M183,100.3v4.4h7.1v3.2H183v7.3h-3.5V97.2h11.9v3.2H183z"/>
		</g>
		<g>
			<path d="M211.6,113.5c-1.2,1.2-2.9,1.7-4.8,1.7h-6.5V97.2h6.5c1.9,0,3.6,0.5,4.8,1.7c2,2,1.8,4.5,1.8,7.2
				S213.7,111.5,211.6,113.5z M209.2,101.4c-0.6-0.7-1.4-1.1-2.6-1.1h-2.7v11.8h2.7c1.2,0,2-0.4,2.6-1.1c0.7-0.8,0.8-2.1,0.8-4.9
				C209.9,103.4,209.8,102.2,209.2,101.4z"/>
		</g>
		<g>
			<path d="M216.6,115.2V97.2h11.9v3.2h-8.4v4.2h7.1v3.2h-7.1v4.4h8.4v3.2H216.6z"/>
		</g>
		<g>
			<path d="M237.1,115.4c-2.7,0-4.8-0.6-6.6-2.4l2.3-2.3c1.1,1.1,2.7,1.5,4.4,1.5c2.1,0,3.2-0.8,3.2-2.2c0-0.6-0.2-1.2-0.6-1.5
				c-0.4-0.3-0.8-0.5-1.6-0.6l-2.2-0.3c-1.6-0.2-2.7-0.7-3.5-1.5c-0.9-0.9-1.3-2-1.3-3.6c0-3.2,2.4-5.5,6.3-5.5
				c2.5,0,4.3,0.6,5.8,2.1l-2.2,2.2c-1.1-1.1-2.5-1.2-3.7-1.2c-1.9,0-2.8,1-2.8,2.3c0,0.5,0.2,0.9,0.5,1.3c0.4,0.3,0.9,0.6,1.7,0.7
				l2.1,0.3c1.7,0.2,2.7,0.7,3.5,1.4c1,0.9,1.4,2.2,1.4,3.8C243.8,113.4,240.9,115.4,237.1,115.4z"/>
		</g>
		<g>
			<path d="M246.7,115.2V97.2h3.5v18.1H246.7z"/>
		</g>
		<g>
			<path d="M265.2,113.3c-1.4,1.4-3.1,2.1-5.1,2.1c-1.9,0-3.6-0.7-4.9-2c-0.8-0.8-1.3-1.7-1.5-2.7c-0.2-1-0.3-2.5-0.3-4.5
				s0.1-3.5,0.3-4.5c0.2-1,0.7-1.9,1.5-2.7c1.3-1.3,2.9-2,4.9-2c4.1,0,6.3,2.6,6.8,5.8h-3.6c-0.4-1.8-1.5-2.6-3.3-2.6
				c-0.9,0-1.7,0.3-2.3,1c-0.7,0.8-0.9,1.5-0.9,5.1c0,3.6,0.2,4.3,0.9,5.1c0.5,0.6,1.3,0.9,2.3,0.9c1,0,1.9-0.3,2.5-1
				c0.5-0.6,0.8-1.4,0.8-2.4v-0.7h-3.3v-2.9h6.8v2.6C267,110.5,266.5,112,265.2,113.3z"/>
		</g>
		<g>
			<path d="M280.8,115.2l-7.2-11.1v11.1h-3.5V97.2h3.2l7.2,11.1V97.2h3.5v18.1H280.8z"/>
		</g>
	</g>
	<g>
		<path d="M60,36.1c2.2,0,4,1.3,4.9,3.1V26.5c0-5.6,4.5-10.1,10.1-10.1c5.6,0,10.1,4.5,10.1,10.1v12.9c0.8-1.9,2.8-3.3,5-3.3
			c2.2,0,4,1.3,4.9,3.1V26.5c0-11-9-20-20-20c-11,0-20,9-20,20v12.9C55.9,37.4,57.8,36.1,60,36.1z"/>
		<path d="M90.1,37.1c-2.5,0-4.4,2-4.4,4.4s2,4.4,4.4,4.4c2.4,0,4.4-2,4.4-4.4S92.5,37.1,90.1,37.1z"/>
		<path d="M60,46c2.5,0,4.4-2,4.4-4.4s-2-4.4-4.4-4.4c-2.4,0-4.4,2-4.4,4.4S57.6,46,60,46z"/>
		<path d="M90.1,47c-2.2,0-4.1-1.3-4.9-3.2v12.7c0,5.6-4.5,10.1-10.1,10.1c-5.6,0-10.1-4.5-10.1-10.1V43.8C64.1,45.6,62.2,47,60,47
			c-2.2,0-4.1-1.3-4.9-3.2v12.7c0,11,9,20,20,20c11,0,20-9,20-20V43.8C94.1,45.6,92.2,47,90.1,47z"/>
	</g>
	<g>
		<path d="M217.5,37.1h15c2.4,0,4.4,2,4.4,4.4c0,2.5-2,4.4-4.4,4.4h-15c-4.5,0-8.9-1.6-12.4-4.4C208.6,38.6,213,37.1,217.5,37.1z"/>
		<path d="M232.5,16.4h-15c-5.6,0-10.1,4.5-10.1,10.1c0,4.7,3.2,8.6,7.6,9.7c-4,0.5-7.9,2.2-11,4.9l0,0c-4-3.6-6.5-8.9-6.5-14.7
			c0-11,9-20,20-20h15c2.7,0,4.9,2.2,4.9,4.9C237.5,14.2,235.2,16.4,232.5,16.4z"/>
		<path d="M204,41.9L204,41.9c3.1,2.7,7,4.4,11,4.9c-4.3,1.1-7.6,5.1-7.6,9.7c0,5.6,4.5,10.1,10.1,10.1h15c2.7,0,4.9,2.2,4.9,4.9
			c0,2.7-2.2,4.9-4.9,4.9h-15c-11,0-20-9-20-20C197.5,50.7,200,45.5,204,41.9z"/>
	</g>
	<g>
		<path d="M265.5,37.1h15c2.4,0,4.4,2,4.4,4.4c0,2.5-2,4.4-4.4,4.4h-15c-4.5,0-8.9-1.6-12.4-4.4C256.7,38.6,261,37.1,265.5,37.1z"/>
		<path d="M280.6,16.4h-15c-5.6,0-10.1,4.5-10.1,10.1c0,4.7,3.2,8.6,7.6,9.7c-4,0.5-7.9,2.2-11,4.9l0,0c-4-3.6-6.5-8.9-6.5-14.7
			c0-11,9-20,20-20h15c2.7,0,4.9,2.2,4.9,4.9C285.5,14.2,283.3,16.4,280.6,16.4z"/>
		<path d="M252,41.9L252,41.9c3.1,2.7,7,4.4,11,4.9c-4.3,1.1-7.6,5.1-7.6,9.7c0,5.6,4.5,10.1,10.1,10.1h15c2.7,0,4.9,2.2,4.9,4.9
			c0,2.7-2.2,4.9-4.9,4.9h-15c-11,0-20-9-20-20C245.6,50.7,248.1,45.5,252,41.9z"/>
	</g>
</g>
</svg>
