<svg xmlns="http://www.w3.org/2000/svg" viewBox="0 0 699.46 699.43">
	<g>
		<path d="M503,673.93c-4.06-3.1-7.86-5.9-11.55-8.84a350.28,350.28,0,0,1-123.25-192.9,2.8,2.8,0,0,1,1.07-3q26.11-26.07,52.2-52.18,39.8-39.8,79.58-79.62a9.14,9.14,0,0,0,1.19-2.08l.77.64Z" transform="translate(-358.75 -41.08)"/>
		<path d="M815.28,575.18,1054,336.44c.58,4.21,1.24,8.58,1.77,13A350,350,0,0,1,1007,573.28a3.48,3.48,0,0,1-3.44,1.94q-93.1-.07-186.2,0Z" transform="translate(-358.75 -41.08)"/>
		<path d="M653.95,45.18c7.4-.88,14.69-1.88,22-2.58a339.76,339.76,0,0,1,43.51-1.34A350.18,350.18,0,0,1,890.5,92,4.3,4.3,0,0,1,893,96.24q-.11,92.86-.06,185.71v2.18Z" transform="translate(-358.75 -41.08)"/>
		<path d="M524.14,497.49,762.89,736.25c-2,.33-4.28.73-6.53,1a355.55,355.55,0,0,1-82.75,1.5A345.62,345.62,0,0,1,552,703.65c-9-4.5-17.61-9.72-26.4-14.6A2.6,2.6,0,0,1,524,686.5q.06-94.19,0-188.38A5.7,5.7,0,0,1,524.14,497.49Z" transform="translate(-358.75 -41.08)"/>
		<path d="M602,206.43l-239,239c-.5-3.51-1.06-7-1.5-10.53A350,350,0,0,1,410,208.26a3.34,3.34,0,0,1,3.28-1.86q93.3.07,186.61,0Z" transform="translate(-358.75 -41.08)"/>
		<path d="M914,107.61c5.58,4.37,10.89,8.33,16,12.54,50.11,41.37,86.35,92.56,108.16,153.8,4.1,11.51,7,23.44,10.52,35.17a2.91,2.91,0,0,1-.9,3.27q-66.18,66.1-132.3,132.25c-.39.39-.82.75-1.47,1.34Z" transform="translate(-358.75 -41.08)"/>
		<path d="M991.62,596.4C987.38,601.82,983.5,607,979.4,612a349.42,349.42,0,0,1-116.61,92.77A338.21,338.21,0,0,1,789.92,731a3.53,3.53,0,0,1-2.81-.81q-66.44-66.3-132.78-132.7c-.25-.25-.47-.53-.92-1Z" transform="translate(-358.75 -41.08)"/>
		<path d="M763.79,185.27H425.39c3.76-4.86,7.18-9.46,10.79-13.92A349.72,349.72,0,0,1,555,76.49a344.71,344.71,0,0,1,71.63-25.8,3.49,3.49,0,0,1,3.79,1.16q53.4,53.48,106.86,106.9Z" transform="translate(-358.75 -41.08)"/>
	</g>
</svg>